<svg width="41" height="41" viewBox="0 0 41 41" fill="none" xmlns="http://www.w3.org/2000/svg">
<path d="M38.9038 32.2746C38.9038 32.9347 38.7571 33.6132 38.4454 34.2733C38.1336 34.9334 37.7302 35.5569 37.1985 36.1437C36.3 37.1339 35.3098 37.849 34.1912 38.3074C33.091 38.7658 31.8991 39.0042 30.6155 39.0042C28.7452 39.0042 26.7465 38.5641 24.6377 37.6656C22.529 36.7671 20.4203 35.5569 18.3299 34.0349C16.2211 32.4946 14.2224 30.7893 12.3154 28.9006C10.4267 26.9936 8.72138 24.9949 7.19942 22.9045C5.6958 20.8141 4.48557 18.7237 3.60541 16.6516C2.72524 14.5612 2.28516 12.5625 2.28516 10.6555C2.28516 9.40858 2.5052 8.21669 2.94528 7.11648C3.38537 5.99793 4.08216 4.97107 5.05402 4.05423C6.22757 2.89901 7.51115 2.33057 8.86808 2.33057C9.38151 2.33057 9.89494 2.44059 10.3534 2.66063C10.8301 2.88067 11.2519 3.21073 11.5819 3.68749L15.8361 9.68363C16.1661 10.1421 16.4045 10.5638 16.5695 10.9672C16.7346 11.3523 16.8263 11.7374 16.8263 12.0858C16.8263 12.5258 16.6979 12.9659 16.4412 13.3877C16.2028 13.8094 15.8544 14.2495 15.4143 14.6896L14.0207 16.1382C13.819 16.3399 13.7273 16.5783 13.7273 16.8717C13.7273 17.0184 13.7457 17.1467 13.7823 17.2934C13.8374 17.4401 13.8924 17.5501 13.929 17.6601C14.2591 18.2653 14.8275 19.0537 15.6344 20.0073C16.4595 20.9608 17.3397 21.9326 18.2932 22.9045C19.2834 23.8763 20.2369 24.7748 21.2088 25.6C22.1623 26.4068 22.9508 26.9569 23.5742 27.287C23.6659 27.3237 23.7759 27.3787 23.9043 27.4337C24.051 27.4887 24.1977 27.507 24.3627 27.507C24.6744 27.507 24.9128 27.397 25.1145 27.1953L26.5081 25.82C26.9665 25.3616 27.4066 25.0132 27.8283 24.7932C28.2501 24.5365 28.6718 24.4081 29.1303 24.4081C29.4787 24.4081 29.8454 24.4814 30.2488 24.6465C30.6522 24.8115 31.074 25.0499 31.5324 25.3616L37.6019 29.6708C38.0786 30.0008 38.4087 30.3859 38.6104 30.8443C38.7938 31.3027 38.9038 31.7612 38.9038 32.2746Z" stroke="white" stroke-width="2.75052" stroke-miterlimit="10"/>
<path d="M28.3789 12.9112L34.8701 6.41992" stroke="white" stroke-width="2.75052" stroke-linecap="round" stroke-linejoin="round"/>
<path d="M34.8701 12.9112L28.3789 6.41992" stroke="white" stroke-width="2.75052" stroke-linecap="round" stroke-linejoin="round"/>
</svg>
