<svg width="22" height="29" viewBox="0 0 22 29" fill="none" xmlns="http://www.w3.org/2000/svg">
<path d="M10.8158 0.0483398C9.25154 0.0483398 7.75133 0.669746 6.64522 1.77586C5.53911 2.88197 4.91771 4.38217 4.91771 5.94645V14.2038C4.91771 15.7681 5.53911 17.2683 6.64522 18.3744C7.75133 19.4805 9.25154 20.1019 10.8158 20.1019C12.3801 20.1019 13.8803 19.4805 14.9864 18.3744C16.0925 17.2683 16.7139 15.7681 16.7139 14.2038V5.94645C16.7139 4.38217 16.0925 2.88197 14.9864 1.77586C13.8803 0.669746 12.3801 0.0483398 10.8158 0.0483398ZM1.37884 13.0242C1.6917 13.0242 1.99174 13.1485 2.21296 13.3697C2.43418 13.5909 2.55846 13.8909 2.55846 14.2038C2.55846 16.3938 3.42843 18.4941 4.97699 20.0426C6.52554 21.5912 8.62583 22.4612 10.8158 22.4612C13.0058 22.4612 15.1061 21.5912 16.6546 20.0426C18.2032 18.4941 19.0732 16.3938 19.0732 14.2038C19.0732 13.8909 19.1975 13.5909 19.4187 13.3697C19.6399 13.1485 19.9399 13.0242 20.2528 13.0242C20.5656 13.0242 20.8657 13.1485 21.0869 13.3697C21.3081 13.5909 21.4324 13.8909 21.4324 14.2038C21.4329 16.8156 20.4707 19.3359 18.7296 21.2828C16.9886 23.2297 14.5911 24.4665 11.9954 24.7567V27.1796C11.9954 27.4925 11.8712 27.7925 11.6499 28.0138C11.4287 28.235 11.1287 28.3593 10.8158 28.3593C10.503 28.3593 10.2029 28.235 9.9817 28.0138C9.76048 27.7925 9.6362 27.4925 9.6362 27.1796V24.7567C7.04057 24.4665 4.643 23.2297 2.90199 21.2828C1.16098 19.3359 0.198717 16.8156 0.199219 14.2038C0.199219 13.8909 0.3235 13.5909 0.544722 13.3697C0.765945 13.1485 1.06599 13.0242 1.37884 13.0242Z" fill="#2D2C2C"/>
<path d="M10.8158 0.0483398C9.25154 0.0483398 7.75133 0.669746 6.64522 1.77586C5.53911 2.88197 4.91771 4.38217 4.91771 5.94645V14.2038C4.91771 15.7681 5.53911 17.2683 6.64522 18.3744C7.75133 19.4805 9.25154 20.1019 10.8158 20.1019C12.3801 20.1019 13.8803 19.4805 14.9864 18.3744C16.0925 17.2683 16.7139 15.7681 16.7139 14.2038V5.94645C16.7139 4.38217 16.0925 2.88197 14.9864 1.77586C13.8803 0.669746 12.3801 0.0483398 10.8158 0.0483398ZM1.37884 13.0242C1.6917 13.0242 1.99174 13.1485 2.21296 13.3697C2.43418 13.5909 2.55846 13.8909 2.55846 14.2038C2.55846 16.3938 3.42843 18.4941 4.97699 20.0426C6.52554 21.5912 8.62583 22.4612 10.8158 22.4612C13.0058 22.4612 15.1061 21.5912 16.6546 20.0426C18.2032 18.4941 19.0732 16.3938 19.0732 14.2038C19.0732 13.8909 19.1975 13.5909 19.4187 13.3697C19.6399 13.1485 19.9399 13.0242 20.2528 13.0242C20.5656 13.0242 20.8657 13.1485 21.0869 13.3697C21.3081 13.5909 21.4324 13.8909 21.4324 14.2038C21.4329 16.8156 20.4707 19.3359 18.7296 21.2828C16.9886 23.2297 14.5911 24.4665 11.9954 24.7567V27.1796C11.9954 27.4925 11.8712 27.7925 11.6499 28.0138C11.4287 28.235 11.1287 28.3593 10.8158 28.3593C10.503 28.3593 10.2029 28.235 9.9817 28.0138C9.76048 27.7925 9.6362 27.4925 9.6362 27.1796V24.7567C7.04057 24.4665 4.643 23.2297 2.90199 21.2828C1.16098 19.3359 0.198717 16.8156 0.199219 14.2038C0.199219 13.8909 0.3235 13.5909 0.544722 13.3697C0.765945 13.1485 1.06599 13.0242 1.37884 13.0242Z" fill="black" fill-opacity="0.2"/>
<path d="M10.8158 0.0483398C9.25154 0.0483398 7.75133 0.669746 6.64522 1.77586C5.53911 2.88197 4.91771 4.38217 4.91771 5.94645V14.2038C4.91771 15.7681 5.53911 17.2683 6.64522 18.3744C7.75133 19.4805 9.25154 20.1019 10.8158 20.1019C12.3801 20.1019 13.8803 19.4805 14.9864 18.3744C16.0925 17.2683 16.7139 15.7681 16.7139 14.2038V5.94645C16.7139 4.38217 16.0925 2.88197 14.9864 1.77586C13.8803 0.669746 12.3801 0.0483398 10.8158 0.0483398ZM1.37884 13.0242C1.6917 13.0242 1.99174 13.1485 2.21296 13.3697C2.43418 13.5909 2.55846 13.8909 2.55846 14.2038C2.55846 16.3938 3.42843 18.4941 4.97699 20.0426C6.52554 21.5912 8.62583 22.4612 10.8158 22.4612C13.0058 22.4612 15.1061 21.5912 16.6546 20.0426C18.2032 18.4941 19.0732 16.3938 19.0732 14.2038C19.0732 13.8909 19.1975 13.5909 19.4187 13.3697C19.6399 13.1485 19.9399 13.0242 20.2528 13.0242C20.5656 13.0242 20.8657 13.1485 21.0869 13.3697C21.3081 13.5909 21.4324 13.8909 21.4324 14.2038C21.4329 16.8156 20.4707 19.3359 18.7296 21.2828C16.9886 23.2297 14.5911 24.4665 11.9954 24.7567V27.1796C11.9954 27.4925 11.8712 27.7925 11.6499 28.0138C11.4287 28.235 11.1287 28.3593 10.8158 28.3593C10.503 28.3593 10.2029 28.235 9.9817 28.0138C9.76048 27.7925 9.6362 27.4925 9.6362 27.1796V24.7567C7.04057 24.4665 4.643 23.2297 2.90199 21.2828C1.16098 19.3359 0.198717 16.8156 0.199219 14.2038C0.199219 13.8909 0.3235 13.5909 0.544722 13.3697C0.765945 13.1485 1.06599 13.0242 1.37884 13.0242Z" fill="black" fill-opacity="0.2"/>
<path d="M10.8158 0.0483398C9.25154 0.0483398 7.75133 0.669746 6.64522 1.77586C5.53911 2.88197 4.91771 4.38217 4.91771 5.94645V14.2038C4.91771 15.7681 5.53911 17.2683 6.64522 18.3744C7.75133 19.4805 9.25154 20.1019 10.8158 20.1019C12.3801 20.1019 13.8803 19.4805 14.9864 18.3744C16.0925 17.2683 16.7139 15.7681 16.7139 14.2038V5.94645C16.7139 4.38217 16.0925 2.88197 14.9864 1.77586C13.8803 0.669746 12.3801 0.0483398 10.8158 0.0483398ZM1.37884 13.0242C1.6917 13.0242 1.99174 13.1485 2.21296 13.3697C2.43418 13.5909 2.55846 13.8909 2.55846 14.2038C2.55846 16.3938 3.42843 18.4941 4.97699 20.0426C6.52554 21.5912 8.62583 22.4612 10.8158 22.4612C13.0058 22.4612 15.1061 21.5912 16.6546 20.0426C18.2032 18.4941 19.0732 16.3938 19.0732 14.2038C19.0732 13.8909 19.1975 13.5909 19.4187 13.3697C19.6399 13.1485 19.9399 13.0242 20.2528 13.0242C20.5656 13.0242 20.8657 13.1485 21.0869 13.3697C21.3081 13.5909 21.4324 13.8909 21.4324 14.2038C21.4329 16.8156 20.4707 19.3359 18.7296 21.2828C16.9886 23.2297 14.5911 24.4665 11.9954 24.7567V27.1796C11.9954 27.4925 11.8712 27.7925 11.6499 28.0138C11.4287 28.235 11.1287 28.3593 10.8158 28.3593C10.503 28.3593 10.2029 28.235 9.9817 28.0138C9.76048 27.7925 9.6362 27.4925 9.6362 27.1796V24.7567C7.04057 24.4665 4.643 23.2297 2.90199 21.2828C1.16098 19.3359 0.198717 16.8156 0.199219 14.2038C0.199219 13.8909 0.3235 13.5909 0.544722 13.3697C0.765945 13.1485 1.06599 13.0242 1.37884 13.0242Z" fill="black" fill-opacity="0.2"/>
<path d="M10.8158 0.0483398C9.25154 0.0483398 7.75133 0.669746 6.64522 1.77586C5.53911 2.88197 4.91771 4.38217 4.91771 5.94645V14.2038C4.91771 15.7681 5.53911 17.2683 6.64522 18.3744C7.75133 19.4805 9.25154 20.1019 10.8158 20.1019C12.3801 20.1019 13.8803 19.4805 14.9864 18.3744C16.0925 17.2683 16.7139 15.7681 16.7139 14.2038V5.94645C16.7139 4.38217 16.0925 2.88197 14.9864 1.77586C13.8803 0.669746 12.3801 0.0483398 10.8158 0.0483398ZM1.37884 13.0242C1.6917 13.0242 1.99174 13.1485 2.21296 13.3697C2.43418 13.5909 2.55846 13.8909 2.55846 14.2038C2.55846 16.3938 3.42843 18.4941 4.97699 20.0426C6.52554 21.5912 8.62583 22.4612 10.8158 22.4612C13.0058 22.4612 15.1061 21.5912 16.6546 20.0426C18.2032 18.4941 19.0732 16.3938 19.0732 14.2038C19.0732 13.8909 19.1975 13.5909 19.4187 13.3697C19.6399 13.1485 19.9399 13.0242 20.2528 13.0242C20.5656 13.0242 20.8657 13.1485 21.0869 13.3697C21.3081 13.5909 21.4324 13.8909 21.4324 14.2038C21.4329 16.8156 20.4707 19.3359 18.7296 21.2828C16.9886 23.2297 14.5911 24.4665 11.9954 24.7567V27.1796C11.9954 27.4925 11.8712 27.7925 11.6499 28.0138C11.4287 28.235 11.1287 28.3593 10.8158 28.3593C10.503 28.3593 10.2029 28.235 9.9817 28.0138C9.76048 27.7925 9.6362 27.4925 9.6362 27.1796V24.7567C7.04057 24.4665 4.643 23.2297 2.90199 21.2828C1.16098 19.3359 0.198717 16.8156 0.199219 14.2038C0.199219 13.8909 0.3235 13.5909 0.544722 13.3697C0.765945 13.1485 1.06599 13.0242 1.37884 13.0242Z" fill="black" fill-opacity="0.2"/>
<path d="M10.8158 0.0483398C9.25154 0.0483398 7.75133 0.669746 6.64522 1.77586C5.53911 2.88197 4.91771 4.38217 4.91771 5.94645V14.2038C4.91771 15.7681 5.53911 17.2683 6.64522 18.3744C7.75133 19.4805 9.25154 20.1019 10.8158 20.1019C12.3801 20.1019 13.8803 19.4805 14.9864 18.3744C16.0925 17.2683 16.7139 15.7681 16.7139 14.2038V5.94645C16.7139 4.38217 16.0925 2.88197 14.9864 1.77586C13.8803 0.669746 12.3801 0.0483398 10.8158 0.0483398ZM1.37884 13.0242C1.6917 13.0242 1.99174 13.1485 2.21296 13.3697C2.43418 13.5909 2.55846 13.8909 2.55846 14.2038C2.55846 16.3938 3.42843 18.4941 4.97699 20.0426C6.52554 21.5912 8.62583 22.4612 10.8158 22.4612C13.0058 22.4612 15.1061 21.5912 16.6546 20.0426C18.2032 18.4941 19.0732 16.3938 19.0732 14.2038C19.0732 13.8909 19.1975 13.5909 19.4187 13.3697C19.6399 13.1485 19.9399 13.0242 20.2528 13.0242C20.5656 13.0242 20.8657 13.1485 21.0869 13.3697C21.3081 13.5909 21.4324 13.8909 21.4324 14.2038C21.4329 16.8156 20.4707 19.3359 18.7296 21.2828C16.9886 23.2297 14.5911 24.4665 11.9954 24.7567V27.1796C11.9954 27.4925 11.8712 27.7925 11.6499 28.0138C11.4287 28.235 11.1287 28.3593 10.8158 28.3593C10.503 28.3593 10.2029 28.235 9.9817 28.0138C9.76048 27.7925 9.6362 27.4925 9.6362 27.1796V24.7567C7.04057 24.4665 4.643 23.2297 2.90199 21.2828C1.16098 19.3359 0.198717 16.8156 0.199219 14.2038C0.199219 13.8909 0.3235 13.5909 0.544722 13.3697C0.765945 13.1485 1.06599 13.0242 1.37884 13.0242Z" fill="black" fill-opacity="0.2"/>
</svg>
