<svg width="27" height="21" viewBox="0 0 27 21" fill="none" xmlns="http://www.w3.org/2000/svg">
<path d="M2.54189 20.7773C2.03072 20.7773 1.58344 20.5857 1.20007 20.2023C0.816689 19.8189 0.625 19.3716 0.625 18.8605V2.24745C0.625 1.73628 0.816689 1.28901 1.20007 0.905632C1.58344 0.522255 2.03072 0.330566 2.54189 0.330566H19.1549C19.6661 0.330566 20.1133 0.522255 20.4967 0.905632C20.8801 1.28901 21.0718 1.73628 21.0718 2.24745V9.11629L26.1835 4.0046V17.1033L21.0718 11.9916V18.8605C21.0718 19.3716 20.8801 19.8189 20.4967 20.2023C20.1133 20.5857 19.6661 20.7773 19.1549 20.7773H2.54189Z" fill="#2D2C2C"/>
<path d="M2.54189 20.7773C2.03072 20.7773 1.58344 20.5857 1.20007 20.2023C0.816689 19.8189 0.625 19.3716 0.625 18.8605V2.24745C0.625 1.73628 0.816689 1.28901 1.20007 0.905632C1.58344 0.522255 2.03072 0.330566 2.54189 0.330566H19.1549C19.6661 0.330566 20.1133 0.522255 20.4967 0.905632C20.8801 1.28901 21.0718 1.73628 21.0718 2.24745V9.11629L26.1835 4.0046V17.1033L21.0718 11.9916V18.8605C21.0718 19.3716 20.8801 19.8189 20.4967 20.2023C20.1133 20.5857 19.6661 20.7773 19.1549 20.7773H2.54189Z" fill="black" fill-opacity="0.2"/>
<path d="M2.54189 20.7773C2.03072 20.7773 1.58344 20.5857 1.20007 20.2023C0.816689 19.8189 0.625 19.3716 0.625 18.8605V2.24745C0.625 1.73628 0.816689 1.28901 1.20007 0.905632C1.58344 0.522255 2.03072 0.330566 2.54189 0.330566H19.1549C19.6661 0.330566 20.1133 0.522255 20.4967 0.905632C20.8801 1.28901 21.0718 1.73628 21.0718 2.24745V9.11629L26.1835 4.0046V17.1033L21.0718 11.9916V18.8605C21.0718 19.3716 20.8801 19.8189 20.4967 20.2023C20.1133 20.5857 19.6661 20.7773 19.1549 20.7773H2.54189Z" fill="black" fill-opacity="0.2"/>
<path d="M2.54189 20.7773C2.03072 20.7773 1.58344 20.5857 1.20007 20.2023C0.816689 19.8189 0.625 19.3716 0.625 18.8605V2.24745C0.625 1.73628 0.816689 1.28901 1.20007 0.905632C1.58344 0.522255 2.03072 0.330566 2.54189 0.330566H19.1549C19.6661 0.330566 20.1133 0.522255 20.4967 0.905632C20.8801 1.28901 21.0718 1.73628 21.0718 2.24745V9.11629L26.1835 4.0046V17.1033L21.0718 11.9916V18.8605C21.0718 19.3716 20.8801 19.8189 20.4967 20.2023C20.1133 20.5857 19.6661 20.7773 19.1549 20.7773H2.54189Z" fill="black" fill-opacity="0.2"/>
<path d="M2.54189 20.7773C2.03072 20.7773 1.58344 20.5857 1.20007 20.2023C0.816689 19.8189 0.625 19.3716 0.625 18.8605V2.24745C0.625 1.73628 0.816689 1.28901 1.20007 0.905632C1.58344 0.522255 2.03072 0.330566 2.54189 0.330566H19.1549C19.6661 0.330566 20.1133 0.522255 20.4967 0.905632C20.8801 1.28901 21.0718 1.73628 21.0718 2.24745V9.11629L26.1835 4.0046V17.1033L21.0718 11.9916V18.8605C21.0718 19.3716 20.8801 19.8189 20.4967 20.2023C20.1133 20.5857 19.6661 20.7773 19.1549 20.7773H2.54189Z" fill="black" fill-opacity="0.2"/>
<path d="M2.54189 20.7773C2.03072 20.7773 1.58344 20.5857 1.20007 20.2023C0.816689 19.8189 0.625 19.3716 0.625 18.8605V2.24745C0.625 1.73628 0.816689 1.28901 1.20007 0.905632C1.58344 0.522255 2.03072 0.330566 2.54189 0.330566H19.1549C19.6661 0.330566 20.1133 0.522255 20.4967 0.905632C20.8801 1.28901 21.0718 1.73628 21.0718 2.24745V9.11629L26.1835 4.0046V17.1033L21.0718 11.9916V18.8605C21.0718 19.3716 20.8801 19.8189 20.4967 20.2023C20.1133 20.5857 19.6661 20.7773 19.1549 20.7773H2.54189Z" fill="black" fill-opacity="0.2"/>
</svg>
